<?xml version="1.0" encoding="utf-8"?>
<!-- Generator: Adobe Illustrator 21.0.0, SVG Export Plug-In . SVG Version: 6.00 Build 0)  -->
<svg version="1.1" id="Layer_1" xmlns="http://www.w3.org/2000/svg" xmlns:xlink="http://www.w3.org/1999/xlink" x="0px" y="0px"
	 viewBox="0 0 252.7 156.7" style="enable-background:new 0 0 252.7 156.7;" xml:space="preserve">
<style type="text/css">
	.st0{fill:#FFFFFF;}
	.st1{fill:#004E91;}
	.st2{fill:#FFDD00;}
	.st3{fill:none;}
</style>
<g>
	<g>
		<path class="st0" d="M289.3,173.7c0,10.9-8.9,19.8-19.8,19.8H-17c-10.9,0-19.8-8.9-19.8-19.8V-17.2C-36.8-28.1-27.9-37-17-37
			h286.4c10.9,0,19.8,8.9,19.8,19.8v190.9H289.3z"/>
	</g>
	<g>
		<path class="st1" d="M225.2,27.4h-11.8h-54.6H147l-8,9l-25.8,29.1l0,0l-8,9H93.4H39.8H28l7.8-9.1l3.7-4.3l7.8-9.1H35.5H20.3h-8.5
			C5.3,52,0,57.5,0,64.1l0,0v23.4v2.2c0,6.7,5.3,12.1,11.8,12.1h3.3h124h8.9c6.5,0,15.4-4.1,19.7-9l20.6-23.4L225.2,27.4z"/>
		<path class="st2" d="M240.9,0.1c6.5,0,11.8,5.5,11.8,12.1v25.6c0,6.7-5.3,12.1-11.8,12.1h-6.4h-17.3h-11.8l7.9-9l0,0l3.9-4.5
			l7.9-9h-78.2l-41.7,47H27.5l55.7-63L85.3,9c4.4-4.9,13.3-9,19.8-9h2.7h133.1V0.1z"/>
	</g>
	<path class="st1" d="M252.7,155.4v-3.7c0-0.5-0.3-0.8-1-0.8h-2.4c-0.7,0-1.2-0.1-1.3-0.4c-0.2-0.3-0.2-0.9-0.2-1.9v-14h3.9
		c0.3,0,0.5-0.1,0.7-0.3c0.2-0.2,0.3-0.4,0.3-0.7v-3.9c0-0.3-0.1-0.5-0.3-0.7c-0.2-0.2-0.4-0.3-0.7-0.3h-3.9v-5.1
		c0-0.3-0.1-0.5-0.2-0.6c-0.2-0.1-0.4-0.2-0.6-0.2h-0.1l-5.8,1c-0.3,0.1-0.5,0.2-0.7,0.3c-0.2,0.2-0.3,0.4-0.3,0.6v3.9h-3.9
		c-0.3,0-0.5,0.1-0.7,0.3c-0.2,0.2-0.3,0.4-0.3,0.7v3.2c0,0.3,0.1,0.5,0.3,0.6c0.2,0.2,0.4,0.3,0.7,0.4l3.9,0.6v14
		c0,1.7,0.2,3.1,0.5,4.2c0.4,1.1,0.9,1.9,1.5,2.5c0.7,0.6,1.5,1,2.5,1.2c1,0.2,2.2,0.3,3.5,0.3c0.7,0,1.3,0,1.9-0.1
		c0.5-0.1,1.2-0.2,1.9-0.3C252.4,156.2,252.7,155.9,252.7,155.4 M231.9,154.9v-4.3c0-0.3-0.1-0.5-0.3-0.6c-0.2-0.1-0.4-0.2-0.6-0.2
		h-0.1c-0.9,0.1-1.8,0.2-2.6,0.2c-0.8,0.1-1.9,0.1-3.3,0.1c-0.5,0-1.1-0.1-1.5-0.3c-0.5-0.2-0.9-0.5-1.3-0.9s-0.6-1-0.8-1.7
		c-0.2-0.7-0.3-1.6-0.3-2.7v-4c0-1.1,0.1-2,0.3-2.7c0.2-0.7,0.5-1.3,0.8-1.7c0.4-0.4,0.8-0.7,1.3-0.9c0.5-0.2,1-0.3,1.5-0.3
		c1.4,0,2.5,0,3.3,0.1s1.7,0.1,2.6,0.2h0.1c0.3,0,0.5-0.1,0.6-0.2c0.2-0.1,0.3-0.3,0.3-0.6v-4.3c0-0.4-0.1-0.6-0.2-0.7
		c-0.2-0.1-0.4-0.3-0.8-0.4c-0.7-0.2-1.5-0.3-2.6-0.5c-1.1-0.2-2.3-0.2-3.8-0.2c-3.4,0-6.1,1-8.2,3.1c-2,2.1-3.1,5.1-3.1,9.1v4
		c0,3.9,1,7,3.1,9.1c2,2.1,4.8,3.1,8.2,3.1c1.4,0,2.7-0.1,3.8-0.2c1.1-0.2,2-0.3,2.6-0.5c0.4-0.1,0.6-0.2,0.8-0.4
		C231.9,155.5,231.9,155.2,231.9,154.9 M200.6,149.8c-0.6,0.3-1.2,0.5-1.9,0.7c-0.7,0.2-1.4,0.3-2.1,0.3c-1,0-1.8-0.1-2.3-0.4
		s-0.7-0.9-0.7-2V148c0-0.6,0.1-1.1,0.2-1.5c0.1-0.4,0.4-0.8,0.7-1.1c0.3-0.3,0.8-0.5,1.3-0.7c0.5-0.1,1.2-0.2,2.1-0.2h2.7V149.8z
		 M208.2,138.1c0-1.8-0.3-3.3-0.8-4.5c-0.5-1.2-1.3-2.2-2.2-3c-1-0.8-2.1-1.4-3.5-1.7c-1.4-0.4-3-0.6-4.7-0.6
		c-1.6,0-3.2,0.1-4.7,0.3c-1.5,0.2-2.7,0.4-3.6,0.7c-0.6,0.2-0.9,0.5-0.9,1.1v3.9c0,0.3,0.1,0.5,0.2,0.7c0.2,0.1,0.4,0.2,0.6,0.2
		h0.2c0.4,0,0.9-0.1,1.4-0.1c0.6,0,1.2-0.1,1.9-0.1s1.5-0.1,2.3-0.1s1.6,0,2.3,0c1.1,0,2,0.2,2.6,0.6c0.6,0.4,1,1.3,1,2.7v1.7h-2.6
		c-4.1,0-7.2,0.6-9,1.9c-1.9,1.3-2.8,3.4-2.8,6.2v0.4c0,1.6,0.2,2.9,0.7,3.9c0.5,1.1,1.1,1.9,1.9,2.6c0.8,0.6,1.6,1.1,2.6,1.4
		c1,0.3,2,0.4,3.1,0.4c1.4,0,2.7-0.2,3.7-0.6c1-0.4,2-0.9,3-1.6v0.8c0,0.3,0.1,0.5,0.3,0.7c0.2,0.2,0.4,0.3,0.7,0.3h5.4
		c0.3,0,0.5-0.1,0.7-0.3c0.2-0.2,0.3-0.4,0.3-0.7L208.2,138.1L208.2,138.1z M182.5,155.4v-3.7c0-0.5-0.3-0.8-1-0.8h-2.3
		c-0.7,0-1.2-0.1-1.3-0.4c-0.2-0.3-0.2-0.9-0.2-1.9v-14h3.9c0.3,0,0.5-0.1,0.7-0.3c0.2-0.2,0.3-0.4,0.3-0.7v-3.9
		c0-0.3-0.1-0.5-0.3-0.7c-0.2-0.2-0.4-0.3-0.7-0.3h-3.9v-5.1c0-0.3-0.1-0.5-0.2-0.6c-0.2-0.1-0.4-0.2-0.6-0.2h-0.1l-5.8,1
		c-0.3,0.1-0.5,0.2-0.7,0.3c-0.2,0.2-0.3,0.4-0.3,0.6v3.9h-3.9c-0.3,0-0.5,0.1-0.7,0.3c-0.2,0.2-0.3,0.4-0.3,0.7v3.2
		c0,0.3,0.1,0.5,0.3,0.6c0.2,0.2,0.4,0.3,0.7,0.4l3.9,0.6v14c0,1.7,0.2,3.1,0.5,4.2c0.4,1.1,0.9,1.9,1.5,2.5s1.5,1,2.5,1.2
		c1,0.2,2.2,0.3,3.5,0.3c0.7,0,1.3,0,1.9-0.1c0.5-0.1,1.2-0.2,1.9-0.3C182.2,156.2,182.5,155.9,182.5,155.4 M161.5,155.3v-16
		c0-1.5-0.1-2.9-0.4-4.3c-0.2-1.3-0.7-2.5-1.3-3.5s-1.5-1.8-2.6-2.3c-1.1-0.6-2.5-0.9-4.3-0.9c-1.5,0-2.9,0.2-4.1,0.6
		c-1.2,0.4-2.4,1-3.8,2v-1.2c0-0.3-0.1-0.5-0.3-0.7c-0.2-0.2-0.4-0.3-0.7-0.3h-5.4c-0.3,0-0.5,0.1-0.7,0.3c-0.2,0.2-0.3,0.4-0.3,0.7
		v25.6c0,0.3,0.1,0.5,0.3,0.7c0.2,0.2,0.4,0.3,0.7,0.3h5.8c0.3,0,0.5-0.1,0.7-0.3c0.2-0.2,0.3-0.4,0.3-0.7v-18.9
		c0.8-0.4,1.6-0.8,2.4-1.1c0.7-0.3,1.5-0.4,2.2-0.4s1.3,0.1,1.8,0.2s0.8,0.4,1.1,0.7c0.3,0.4,0.4,0.8,0.5,1.4
		c0.1,0.6,0.1,1.3,0.1,2.1v16c0,0.3,0.1,0.5,0.3,0.7c0.2,0.2,0.4,0.3,0.7,0.3h5.8c0.3,0,0.5-0.1,0.7-0.3
		C161.4,155.8,161.5,155.5,161.5,155.3 M125.1,144.2c0,3.9-1.4,5.9-4.3,5.9c-1.4,0-2.5-0.5-3.2-1.5s-1.1-2.5-1.1-4.4v-3.4
		c0-2,0.4-3.4,1.1-4.4c0.7-1,1.8-1.5,3.2-1.5c2.8,0,4.3,2,4.3,5.9V144.2z M132.9,140.8c0-1.9-0.3-3.7-0.8-5.2s-1.3-2.8-2.3-3.9
		s-2.3-1.9-3.8-2.5s-3.2-0.9-5.2-0.9s-3.7,0.3-5.2,0.9c-1.5,0.6-2.8,1.4-3.8,2.5s-1.8,2.4-2.3,3.9s-0.8,3.3-0.8,5.2v3.4
		c0,1.9,0.3,3.7,0.8,5.2s1.3,2.8,2.3,3.9c1,1.1,2.3,1.9,3.8,2.5s3.2,0.9,5.2,0.9s3.7-0.3,5.2-0.9s2.8-1.4,3.8-2.5s1.8-2.4,2.3-3.9
		s0.8-3.3,0.8-5.2V140.8z M106.1,154.9v-4.3c0-0.3-0.1-0.5-0.3-0.6s-0.4-0.2-0.7-0.2H105c-0.9,0.1-1.8,0.2-2.6,0.2s-1.9,0.1-3.3,0.1
		c-0.5,0-1.1-0.1-1.5-0.3c-0.5-0.2-0.9-0.5-1.3-0.9c-0.4-0.4-0.6-1-0.8-1.7c-0.2-0.7-0.3-1.6-0.3-2.7v-4c0-1.1,0.1-2,0.3-2.7
		c0.2-0.7,0.5-1.3,0.8-1.7c0.4-0.4,0.8-0.7,1.3-0.9c0.5-0.2,1-0.3,1.5-0.3c1.4,0,2.5,0,3.3,0.1s1.7,0.1,2.6,0.2h0.1
		c0.3,0,0.5-0.1,0.7-0.2c0.2-0.1,0.3-0.3,0.3-0.6v-4.3c0-0.4-0.1-0.6-0.2-0.7c-0.2-0.1-0.4-0.3-0.8-0.4c-0.7-0.2-1.5-0.3-2.6-0.5
		c-1.1-0.2-2.3-0.2-3.8-0.2c-3.4,0-6.1,1-8.2,3.1c-2,2.1-3.1,5.1-3.1,9.1v4c0,3.9,1,7,3.1,9.1c2,2.1,4.8,3.1,8.2,3.1
		c1.4,0,2.7-0.1,3.8-0.2c1.1-0.2,1.9-0.3,2.6-0.5c0.4-0.1,0.6-0.2,0.8-0.4C106.1,155.5,106.1,155.2,106.1,154.9 M82.5,155.3v-16
		c0-1.5-0.1-2.9-0.4-4.3c-0.2-1.3-0.7-2.5-1.3-3.5s-1.5-1.8-2.6-2.3c-1.1-0.6-2.5-0.9-4.3-0.9c-1.5,0-2.9,0.2-4.1,0.6
		c-1.2,0.4-2.4,1-3.8,2v-1.2c0-0.3-0.1-0.5-0.3-0.7c-0.2-0.2-0.4-0.3-0.7-0.3h-5.4c-0.3,0-0.5,0.1-0.7,0.3c-0.2,0.2-0.3,0.4-0.3,0.7
		v25.6c0,0.3,0.1,0.5,0.3,0.7c0.2,0.2,0.4,0.3,0.7,0.3h5.8c0.3,0,0.5-0.1,0.7-0.3c0.2-0.2,0.3-0.4,0.3-0.7v-18.9
		c0.8-0.4,1.6-0.8,2.4-1.1c0.7-0.3,1.5-0.4,2.2-0.4s1.3,0.1,1.8,0.2s0.8,0.4,1.1,0.7c0.3,0.4,0.4,0.8,0.5,1.4
		c0.1,0.6,0.1,1.3,0.1,2.1v16c0,0.3,0.1,0.5,0.3,0.7c0.2,0.2,0.4,0.3,0.7,0.3h5.8c0.3,0,0.5-0.1,0.7-0.3
		C82.3,155.8,82.5,155.5,82.5,155.3 M45.3,149.8c-0.6,0.3-1.2,0.5-1.9,0.7c-0.7,0.2-1.4,0.3-2.1,0.3c-1,0-1.8-0.1-2.3-0.4
		s-0.7-0.9-0.7-2V148c0-0.6,0.1-1.1,0.2-1.5s0.4-0.8,0.7-1.1c0.3-0.3,0.8-0.5,1.3-0.7c0.5-0.1,1.2-0.2,2.1-0.2h2.7
		C45.3,144.5,45.3,149.8,45.3,149.8z M53,138.1c0-1.8-0.3-3.3-0.8-4.5c-0.5-1.2-1.3-2.2-2.2-3c-1-0.8-2.1-1.4-3.5-1.7
		c-1.4-0.4-3-0.6-4.7-0.6c-1.6,0-3.2,0.1-4.7,0.3c-1.5,0.2-2.7,0.4-3.6,0.7c-0.6,0.2-0.9,0.5-0.9,1.1v3.9c0,0.3,0.1,0.5,0.2,0.7
		c0.2,0.1,0.4,0.2,0.6,0.2h0.2c0.4,0,0.9-0.1,1.4-0.1c0.6,0,1.2-0.1,2-0.1c0.7,0,1.5-0.1,2.3-0.1s1.6,0,2.3,0c1.1,0,2,0.2,2.6,0.6
		c0.6,0.4,1,1.3,1,2.7v1.7h-2.6c-4.1,0-7.2,0.6-9,1.9s-2.8,3.4-2.8,6.2v0.4c0,1.6,0.2,2.9,0.7,3.9c0.5,1.1,1.1,1.9,1.9,2.6
		c0.8,0.6,1.6,1.1,2.6,1.4c1,0.3,2,0.4,3.1,0.4c1.4,0,2.7-0.2,3.7-0.6c1-0.4,2-0.9,3-1.6v0.8c0,0.3,0.1,0.5,0.3,0.7
		c0.2,0.2,0.4,0.3,0.7,0.3h5.4c0.3,0,0.5-0.1,0.7-0.3c0.2-0.2,0.3-0.4,0.3-0.7v-17.2H53z M18.6,145.7c0,1.3-0.5,2.4-1.4,3.1
		c-0.9,0.7-2.7,1.1-5.1,1.1h-0.8c-0.4,0-0.8,0-1.2,0s-0.8,0-1.2,0H8.1v-9h5.4c1.9,0,3.3,0.4,4,1.3s1.1,1.9,1.1,3V145.7z M18.4,131.4
		c0,0.5-0.1,1-0.2,1.5c-0.2,0.5-0.4,0.9-0.8,1.2c-0.4,0.3-0.9,0.6-1.5,0.8c-0.6,0.2-1.4,0.3-2.4,0.3H8.1v-8.3c0.2,0,0.4,0,0.7,0
		s0.7,0,1.1,0H11h0.8c2.5,0,4.2,0.3,5.2,0.9c1,0.6,1.5,1.6,1.5,2.9L18.4,131.4L18.4,131.4z M26.6,145.2c0-1.7-0.4-3.1-1.2-4.3
		c-0.8-1.2-1.8-2.2-3.1-2.8c1.3-0.6,2.3-1.6,3-2.8c0.7-1.3,1.1-2.7,1.1-4.2v-0.9c0-1.9-0.4-3.5-1.1-4.8c-0.7-1.3-1.8-2.3-3.1-3.1
		s-2.9-1.3-4.8-1.7c-1.9-0.3-3.9-0.5-6.2-0.5c-0.8,0-1.6,0-2.4,0c-0.8,0-1.6,0.1-2.4,0.1c-0.8,0-1.5,0.1-2.2,0.2
		c-0.7,0.1-1.2,0.1-1.6,0.2c-0.9,0.2-1.6,0.4-2,0.9c-0.4,0.4-0.6,1.2-0.6,2.3V153c0,1.1,0.2,1.8,0.6,2.3c0.4,0.4,1.1,0.7,2,0.9
		c0.5,0.1,1.1,0.2,1.7,0.2c0.7,0.1,1.4,0.1,2.2,0.2c0.8,0,1.6,0.1,2.4,0.1c0.8,0,1.7,0,2.5,0c2.1,0,4.1-0.2,5.9-0.5
		c1.8-0.3,3.5-0.9,4.8-1.7c1.4-0.8,2.4-1.9,3.3-3.3c0.8-1.4,1.2-3.2,1.2-5.3C26.6,145.9,26.6,145.2,26.6,145.2z"/>
	<rect x="-36.8" y="-37" class="st3" width="326" height="230.5"/>
</g>
</svg>
