<?xml version="1.0" encoding="utf-8"?>
<!-- Generator: Adobe Illustrator 21.0.0, SVG Export Plug-In . SVG Version: 6.00 Build 0)  -->
<svg version="1.1" id="Layer_1" xmlns="http://www.w3.org/2000/svg" xmlns:xlink="http://www.w3.org/1999/xlink" x="0px" y="0px"
	 viewBox="0 0 258.4 160.2" style="enable-background:new 0 0 258.4 160.2;" xml:space="preserve">
<style type="text/css">
	.st0{fill:#FFFFFF;}
	.st1{fill:#004E91;}
	.st2{fill:#FFDD00;}
</style>
<rect class="st0" width="258.4" height="160.2"/>
<title>Plan de travail 1</title>
<path class="st1" d="M228,29.2h-78.2l-8,9L116,67.3l0,0l-8,9H30.8l7.8-9.1l3.7-4.3l7.8-9.1H14.6C8.1,53.9,2.8,59.3,2.8,65.9l0,0
	v25.6c-0.1,6.6,5.2,12,11.8,12.1h136.2c6.5,0,15.4-4.1,19.7-9l20.6-23.4L228,29.2z"/>
<path class="st2" d="M243.7,1.9c6.6,0.1,11.9,5.5,11.8,12.1v25.6c0.1,6.6-5.2,12-11.8,12.1h-35.5l7.9-9l0,0l3.9-4.5l7.9-9h-78.2
	l-41.7,47H30.3l55.7-63l2.1-2.4c4.4-4.9,13.3-9,19.8-9h135.8V1.9z"/>
<path class="st1" d="M255.5,157.2v-3.7c0-0.5-0.3-0.8-1-0.8h-2.4c-0.7,0-1.2-0.1-1.3-0.4c-0.2-0.6-0.3-1.3-0.2-1.9v-14h3.9
	c0.6,0,1-0.4,1-1v-3.9c0-0.6-0.4-1-1-1h-3.9v-5.1c0-0.2-0.1-0.4-0.2-0.6c-0.2-0.1-0.4-0.2-0.6-0.2h-0.1l-5.8,1
	c-0.2,0.1-0.5,0.2-0.7,0.3c-0.2,0.2-0.3,0.4-0.3,0.6v3.9H239c-0.6,0-1,0.4-1,1v3.2c0,0.2,0.1,0.5,0.3,0.6c0.2,0.2,0.4,0.3,0.7,0.4
	l3.9,0.6v14c0,1.4,0.1,2.8,0.5,4.2c0.3,0.9,0.8,1.8,1.5,2.5c0.7,0.6,1.6,1,2.5,1.2c1.2,0.2,2.3,0.3,3.5,0.3c0.6,0,1.3,0,1.9-0.1
	c0.5-0.1,1.2-0.2,1.9-0.3c0.4,0,0.8-0.3,0.8-0.7C255.5,157.2,255.5,157.2,255.5,157.2 M234.7,156.7v-4.3c0-0.2-0.1-0.5-0.3-0.6
	c-0.2-0.1-0.4-0.2-0.6-0.2h-0.1c-0.9,0.1-1.7,0.2-2.6,0.2c-1.1,0.1-2.2,0.1-3.3,0.1c-0.5,0-1-0.1-1.5-0.3c-0.5-0.2-0.9-0.5-1.3-0.9
	c-0.4-0.5-0.7-1.1-0.8-1.7c-0.2-0.9-0.3-1.8-0.3-2.7v-4c0-0.9,0.1-1.8,0.3-2.7c0.2-0.6,0.4-1.2,0.8-1.7c0.4-0.4,0.8-0.7,1.3-0.9
	c0.5-0.2,1-0.3,1.5-0.3c1.1,0,2.2,0,3.3,0.1c0.8,0.1,1.7,0.1,2.6,0.2h0.1c0.2,0,0.4-0.1,0.6-0.2c0.2-0.1,0.3-0.4,0.3-0.6v-4.3
	c0-0.3,0-0.5-0.2-0.7c-0.2-0.2-0.5-0.3-0.8-0.4c-0.7-0.2-1.5-0.3-2.6-0.5c-1.3-0.2-2.5-0.2-3.8-0.2c-3-0.1-6,1-8.2,3.1
	c-2,2.1-3.1,5.1-3.1,9.1v4c0,3.9,1,7,3.1,9.1c2.2,2.1,5.2,3.3,8.2,3.1c1.4,0,2.7-0.1,3.8-0.2c0.9-0.1,1.7-0.3,2.6-0.5
	c0.3,0,0.6-0.2,0.8-0.4C234.7,157.3,234.7,157,234.7,156.7 M203.4,151.6c-0.6,0.3-1.2,0.5-1.9,0.7c-0.7,0.2-1.4,0.3-2.1,0.3
	c-0.8,0.1-1.6-0.1-2.3-0.4c-0.5-0.3-0.7-0.9-0.7-2v-0.4c0-0.5,0.1-1,0.2-1.5c0.1-0.4,0.4-0.8,0.7-1.1c0.4-0.3,0.8-0.5,1.3-0.7
	c0.7-0.1,1.4-0.2,2.1-0.2h2.7V151.6z M211,139.9c0-1.5-0.2-3.1-0.8-4.5c-0.5-1.2-1.3-2.2-2.2-3c-1-0.8-2.2-1.4-3.5-1.7
	c-1.5-0.4-3.1-0.6-4.7-0.6c-1.6,0-3.1,0.1-4.7,0.3c-1.2,0.1-2.4,0.4-3.6,0.7c-0.6,0.2-0.9,0.5-0.9,1.1v3.9c0,0.2,0.1,0.5,0.2,0.7
	c0.2,0.1,0.4,0.2,0.6,0.2h0.2c0.4,0,0.9-0.1,1.4-0.1s1.2-0.1,1.9-0.1s1.5-0.1,2.3-0.1h2.3c0.9-0.1,1.8,0.2,2.6,0.6
	c0.8,0.7,1.1,1.7,1,2.7v1.7h-2.6c-4.1,0-7.2,0.6-9,1.9s-2.8,3.4-2.8,6.2v0.4c-0.1,1.3,0.2,2.7,0.7,3.9c0.4,1,1.1,1.9,1.9,2.6
	c0.8,0.6,1.7,1.1,2.6,1.4c1,0.3,2.1,0.4,3.1,0.4c1.3,0,2.5-0.2,3.7-0.6c1.1-0.4,2.1-1,3-1.6v0.8c0,0.6,0.4,1,1,1h5.4
	c0.6,0,1-0.4,1-1L211,139.9L211,139.9z M185.3,157.2v-3.7c0-0.5-0.3-0.8-1-0.8H182c-0.7,0-1.2-0.1-1.3-0.4c-0.2-0.6-0.3-1.3-0.2-1.9
	v-14h3.9c0.6,0,1-0.4,1-1v-3.9c0-0.6-0.4-1-1-1h-3.9v-5.1c0-0.2-0.1-0.4-0.2-0.6c-0.2-0.1-0.4-0.2-0.6-0.2h-0.1l-5.8,1
	c-0.2,0.1-0.5,0.2-0.7,0.3c-0.2,0.2-0.3,0.4-0.3,0.6v3.9h-3.9c-0.6,0-1,0.4-1,1v3.2c0,0.2,0.1,0.5,0.3,0.6c0.2,0.2,0.4,0.3,0.7,0.4
	l3.9,0.6v14c0,1.4,0.1,2.8,0.5,4.2c0.3,0.9,0.8,1.8,1.5,2.5c0.7,0.6,1.6,1,2.5,1.2c1.2,0.2,2.3,0.3,3.5,0.3c0.6,0,1.3,0,1.9-0.1
	c0.5-0.1,1.2-0.2,1.9-0.3C185,158,185.3,157.6,185.3,157.2C185.3,157.2,185.3,157.2,185.3,157.2 M164.3,157.1v-16
	c0-1.4-0.1-2.9-0.4-4.3c-0.2-1.2-0.6-2.4-1.3-3.5c-0.6-1-1.5-1.8-2.6-2.3c-1.3-0.7-2.8-1-4.3-0.9c-1.4,0-2.8,0.2-4.1,0.6
	c-1.4,0.5-2.6,1.1-3.8,2v-1.2c0-0.6-0.4-1-1-1h-5.4c-0.6,0-1,0.4-1,1v25.6c0,0.6,0.4,1,1,1h5.8c0.6,0,1-0.4,1-1v-18.9
	c0.8-0.4,1.6-0.8,2.4-1.1c0.7-0.3,1.4-0.4,2.2-0.4c0.6,0,1.2,0.1,1.8,0.2c0.4,0.1,0.8,0.4,1.1,0.7c0.3,0.4,0.5,0.9,0.5,1.4
	c0.1,0.7,0.1,1.4,0.1,2.1v16c0,0.6,0.4,1,1,1h5.8c0.3,0,0.5-0.1,0.7-0.3C164.1,157.6,164.3,157.4,164.3,157.1 M127.9,146
	c0,3.9-1.4,5.9-4.3,5.9c-1.3,0.1-2.5-0.5-3.2-1.5c-0.8-1.3-1.2-2.9-1.1-4.4v-3.4c-0.1-1.5,0.3-3.1,1.1-4.4c0.7-1,1.9-1.6,3.2-1.5
	c2.8,0,4.3,2,4.3,5.9V146z M135.7,142.6c0-1.8-0.3-3.5-0.8-5.2c-0.5-1.4-1.3-2.8-2.3-3.9c-1.1-1.1-2.4-2-3.8-2.5
	c-3.4-1.2-7-1.2-10.4,0c-1.4,0.5-2.7,1.4-3.8,2.5c-1,1.1-1.8,2.5-2.3,3.9c-0.5,1.7-0.8,3.4-0.8,5.2v3.4c0,1.8,0.3,3.5,0.8,5.2
	c0.5,1.4,1.3,2.8,2.3,3.9c1.1,1.1,2.4,2,3.8,2.5c3.4,1.2,7,1.2,10.4,0c1.4-0.5,2.7-1.4,3.8-2.5c1-1.1,1.8-2.5,2.3-3.9
	c0.5-1.7,0.8-3.4,0.8-5.2V142.6z M108.9,156.7v-4.3c0-0.2-0.1-0.5-0.3-0.6c-0.2-0.1-0.5-0.2-0.7-0.2h-0.1c-0.9,0.1-1.7,0.2-2.6,0.2
	c-0.8,0-1.9,0.1-3.3,0.1c-0.5,0-1-0.1-1.5-0.3c-0.5-0.2-0.9-0.5-1.3-0.9c-0.4-0.5-0.7-1.1-0.8-1.7c-0.2-0.9-0.3-1.8-0.3-2.7v-4
	c0-0.9,0.1-1.8,0.3-2.7c0.2-0.6,0.4-1.2,0.8-1.7c0.4-0.4,0.8-0.7,1.3-0.9c0.5-0.2,1-0.3,1.5-0.3c1.1,0,2.2,0,3.3,0.1
	c0.8,0.1,1.7,0.1,2.6,0.2h0.1c0.2,0,0.5-0.1,0.7-0.2c0.2-0.1,0.3-0.4,0.3-0.6v-4.3c0-0.3,0-0.5-0.2-0.7c-0.2-0.2-0.5-0.3-0.8-0.4
	c-0.7-0.2-1.5-0.3-2.6-0.5c-1.3-0.2-2.5-0.2-3.8-0.2c-3-0.1-6,1-8.2,3.1c-2,2.1-3.1,5.1-3.1,9.1v4c0,3.9,1,7,3.1,9.1
	c2.2,2.1,5.2,3.3,8.2,3.1c1.4,0,2.7-0.1,3.8-0.2s1.9-0.3,2.6-0.5c0.3,0,0.6-0.2,0.8-0.4C108.9,157.3,108.9,157,108.9,156.7
	 M85.3,157.1v-16c0-1.4-0.1-2.9-0.4-4.3c-0.2-1.2-0.6-2.4-1.3-3.5c-0.6-1-1.5-1.8-2.6-2.3c-1.3-0.7-2.8-1-4.3-0.9
	c-1.4,0-2.8,0.2-4.1,0.6c-1.4,0.5-2.6,1.1-3.8,2v-1.2c0-0.6-0.4-1-1-1h-5.4c-0.6,0-1,0.4-1,1v25.6c0,0.6,0.4,1,1,1h5.8
	c0.6,0,1-0.4,1-1v-18.9c0.8-0.4,1.6-0.8,2.4-1.1c0.7-0.3,1.4-0.4,2.2-0.4c0.6,0,1.2,0.1,1.8,0.2c0.4,0.1,0.8,0.4,1.1,0.7
	c0.3,0.4,0.5,0.9,0.5,1.4c0.1,0.7,0.1,1.4,0.1,2.1v16c0,0.6,0.4,1,1,1h5.8c0.3,0,0.5-0.1,0.7-0.3C85.1,157.6,85.3,157.4,85.3,157.1
	 M48.1,151.6c-0.6,0.3-1.2,0.5-1.9,0.7c-0.7,0.2-1.4,0.3-2.1,0.3c-0.8,0.1-1.6-0.1-2.3-0.4c-0.5-0.3-0.7-0.9-0.7-2v-0.4
	c0-0.5,0.1-1,0.2-1.5c0.1-0.4,0.4-0.8,0.7-1.1c0.4-0.3,0.8-0.5,1.3-0.7c0.7-0.1,1.4-0.2,2.1-0.2h2.7V151.6z M55.8,139.9
	c0-1.5-0.2-3.1-0.8-4.5c-0.5-1.2-1.3-2.2-2.2-3c-1-0.8-2.2-1.4-3.5-1.7c-1.5-0.4-3.1-0.6-4.7-0.6c-1.6,0-3.1,0.1-4.7,0.3
	c-1.2,0.1-2.4,0.4-3.6,0.7c-0.6,0.2-0.9,0.5-0.9,1.1v3.9c0,0.2,0.1,0.5,0.2,0.7c0.2,0.1,0.4,0.2,0.6,0.2h0.2c0.4,0,0.9-0.1,1.4-0.1
	s1.2-0.1,2-0.1s1.5-0.1,2.3-0.1h2.3c0.9-0.1,1.8,0.2,2.6,0.6c0.8,0.7,1.1,1.7,1,2.7v1.7h-2.6c-4.1,0-7.2,0.6-9,1.9
	c-1.9,1.5-3,3.8-2.8,6.2v0.4c-0.1,1.3,0.2,2.7,0.7,3.9c0.4,1,1.1,1.9,1.9,2.6c0.8,0.6,1.7,1.1,2.6,1.4c1,0.3,2.1,0.4,3.1,0.4
	c1.3,0,2.5-0.2,3.7-0.6c1.1-0.4,2.1-1,3-1.6v0.8c0,0.6,0.4,1,1,1H55c0.6,0,1-0.4,1-1v-17.2H55.8z M21.4,147.5c0,1.2-0.5,2.3-1.4,3.1
	c-0.9,0.7-2.7,1.1-5.1,1.1h-4v-9h5.4c1.9,0,3.3,0.4,4,1.3c0.7,0.8,1.1,1.9,1.1,3V147.5z M21.2,133.2c0,0.5-0.1,1-0.2,1.5
	c-0.1,0.5-0.4,0.9-0.8,1.2c-0.5,0.3-1,0.6-1.5,0.8c-0.8,0.2-1.6,0.3-2.4,0.3h-5.4v-8.3h3.7c2.5,0,4.2,0.3,5.2,0.9
	c1,0.6,1.6,1.7,1.5,2.9v0.7H21.2z M29.4,147c0-1.5-0.4-3-1.2-4.3c-0.8-1.2-1.8-2.2-3.1-2.8c1.3-0.6,2.3-1.6,3-2.8
	c0.7-1.3,1.1-2.7,1.1-4.2V132c0-1.7-0.3-3.3-1.1-4.8c-0.7-1.3-1.8-2.4-3.1-3.1c-1.5-0.8-3.1-1.4-4.8-1.7c-2.1-0.3-4.1-0.5-6.2-0.5
	h-2.4c-0.8,0-1.6,0.1-2.4,0.1c-0.7,0-1.5,0.1-2.2,0.2c-0.7,0.1-1.2,0.1-1.6,0.2c-0.7,0.1-1.5,0.4-2,0.9c-0.5,0.7-0.7,1.5-0.6,2.3
	v29.2c-0.1,0.8,0.1,1.6,0.6,2.3c0.6,0.5,1.3,0.8,2,0.9c0.6,0.1,1.1,0.2,1.7,0.2c0.7,0.1,1.4,0.1,2.2,0.2c0.8,0.1,1.6,0.1,2.4,0.1
	h2.5c2,0,4-0.2,5.9-0.5c1.7-0.3,3.3-0.8,4.8-1.7c1.4-0.8,2.5-1.9,3.3-3.3c0.9-1.6,1.3-3.5,1.2-5.3V147z"/>
</svg>
