<?xml version="1.0" encoding="utf-8"?>
<!-- Generator: Adobe Illustrator 21.0.0, SVG Export Plug-In . SVG Version: 6.00 Build 0)  -->
<svg version="1.1" xmlns="http://www.w3.org/2000/svg" xmlns:xlink="http://www.w3.org/1999/xlink" x="0px" y="0px"
	 viewBox="0 0 205.7 160" style="enable-background:new 0 0 205.7 160;" xml:space="preserve">
<style type="text/css">
	.st0{fill:#FFFFFF;}
	.st1{fill:#00A2E5;}
	.st2{fill:#7375CF;}
	.st3{fill:#EB001B;}
</style>
<g id="Calque_2">
	<rect class="st0" width="205.7" height="160"/>
</g>
<g id="Livello_1" xmlns:cc="http://creativecommons.org/ns#" xmlns:dc="http://purl.org/dc/elements/1.1/" xmlns:rdf="http://www.w3.org/1999/02/22-rdf-syntax-ns#">
	<g>
		<g>
			<path class="st1" d="M200.9,102.3v-2.4h-0.6l-0.7,1.6l-0.7-1.6h-0.6v2.4h0.4v-1.8l0.7,1.6h0.5l0.7-1.6v1.8H200.9z M196.9,102.3
				v-2h0.8v-0.4h-2v0.4h0.8v2H196.9z"/>
			<path class="st2" d="M129.8,112.6H75.7V15.4h54.1V112.6z"/>
			<path class="st3" d="M79.2,64c0-19.7,9.2-37.3,23.6-48.6C92.3,7.1,79,2.2,64.6,2.2C30.5,2.2,2.8,29.9,2.8,64s27.7,61.8,61.8,61.8
				c14.4,0,27.7-4.9,38.2-13.2C88.4,101.3,79.2,83.7,79.2,64"/>
			<path class="st1" d="M202.8,64c0,34.1-27.7,61.8-61.8,61.8c-14.4,0-27.7-4.9-38.2-13.2c14.4-11.3,23.6-28.9,23.6-48.6
				s-9.2-37.3-23.6-48.6C113.3,7.1,126.6,2.2,141,2.2C175.1,2.2,202.8,29.9,202.8,64"/>
		</g>
		<g>
			<path d="M148,140.1c0.7,0,1.8,0.1,2.5,0.4l-1.1,3.4c-0.8-0.3-1.5-0.4-2.2-0.4c-2.3,0-3.5,1.5-3.5,4.2v9.2h-3.6v-16.4h3.5v2
				C144.6,141,146,140.1,148,140.1 M134.8,143.7H129v7.4c0,1.6,0.6,2.7,2.4,2.7c0.9,0,2.1-0.3,3.2-0.9l1,3.1
				c-1.1,0.8-2.9,1.3-4.5,1.3c-4.2,0-5.7-2.3-5.7-6.1v-7.5h-3.3v-3.3h3.3v-5h3.6v5h5.8L134.8,143.7L134.8,143.7z M89.1,147.2
				c0.4-2.4,1.8-4,4.4-4c2.3,0,3.8,1.4,4.2,4H89.1z M101.4,148.7c0-5.1-3.2-8.6-7.8-8.6c-4.8,0-8.2,3.5-8.2,8.6
				c0,5.2,3.5,8.6,8.4,8.6c2.5,0,4.7-0.6,6.7-2.3l-1.8-2.6c-1.4,1.1-3.1,1.7-4.8,1.7c-2.3,0-4.4-1.1-4.9-4h12.2
				C101.3,149.6,101.4,149.2,101.4,148.7 M117.1,144.7c-1-0.6-3-1.4-5.1-1.4c-2,0-3.1,0.7-3.1,1.9c0,1.1,1.2,1.4,2.8,1.6l1.7,0.2
				c3.6,0.5,5.7,2,5.7,4.9c0,3.1-2.7,5.4-7.5,5.4c-2.7,0-5.2-0.7-7.1-2.1l1.7-2.8c1.2,0.9,3,1.7,5.5,1.7c2.4,0,3.7-0.7,3.7-2
				c0-0.9-0.9-1.4-2.9-1.7l-1.7-0.2c-3.7-0.5-5.7-2.2-5.7-4.8c0-3.3,2.7-5.3,6.8-5.3c2.6,0,5,0.6,6.7,1.7L117.1,144.7z M161.1,143.4
				c-0.7,0-1.4,0.1-2,0.4c-0.6,0.3-1.2,0.6-1.6,1.1s-0.8,1-1.1,1.7c-0.3,0.6-0.4,1.4-0.4,2.1c0,0.8,0.1,1.5,0.4,2.1
				c0.3,0.6,0.6,1.2,1.1,1.7s1,0.8,1.6,1.1s1.3,0.4,2,0.4s1.4-0.1,2-0.4c0.6-0.3,1.2-0.6,1.6-1.1c0.5-0.5,0.8-1,1.1-1.7
				c0.3-0.6,0.4-1.4,0.4-2.1c0-0.8-0.1-1.5-0.4-2.1c-0.3-0.6-0.6-1.2-1.1-1.7s-1-0.8-1.6-1.1C162.5,143.6,161.8,143.4,161.1,143.4
				 M161.1,140.1c1.3,0,2.5,0.2,3.5,0.7c1.1,0.4,2,1,2.8,1.8s1.4,1.7,1.9,2.7c0.4,1.1,0.7,2.2,0.7,3.4s-0.2,2.4-0.7,3.4
				c-0.4,1.1-1.1,2-1.9,2.7c-0.8,0.8-1.7,1.4-2.8,1.8c-1.1,0.4-2.3,0.7-3.5,0.7c-1.3,0-2.5-0.2-3.5-0.7c-1.1-0.4-2-1-2.8-1.8
				s-1.4-1.7-1.9-2.7c-0.4-1.1-0.7-2.2-0.7-3.4s0.2-2.4,0.7-3.4c0.4-1.1,1.1-2,1.9-2.7c0.8-0.8,1.7-1.4,2.8-1.8
				C158.6,140.3,159.8,140.1,161.1,140.1 M68.3,148.7c0-2.9,1.9-5.3,5-5.3c3,0,4.9,2.3,4.9,5.3s-2,5.2-4.9,5.2
				C70.2,153.9,68.3,151.6,68.3,148.7 M81.6,148.7v-8.2H78v2c-1.1-1.5-2.8-2.4-5.2-2.4c-4.6,0-8.2,3.6-8.2,8.6s3.6,8.6,8.2,8.6
				c2.3,0,4-0.9,5.2-2.4v2h3.6V148.7z M61.5,156.9v-10.3c0-3.9-2.5-6.5-6.5-6.5c-2.1,0-4.3,0.6-5.8,2.9c-1.1-1.8-2.9-2.9-5.4-2.9
				c-1.7,0-3.5,0.5-4.8,2.4v-2h-3.6v16.4H39v-9.1c0-2.8,1.6-4.4,4-4.4s3.6,1.5,3.6,4.3v9.1h3.6v-9.1c0-2.8,1.7-4.4,4-4.4
				c2.4,0,3.6,1.5,3.6,4.3v9.1h3.7V156.9z"/>
			<path d="M173.8,155.6v0.4h0.4c0.1,0,0.2,0,0.2-0.1c0.1,0,0.1-0.1,0.1-0.2s0-0.1-0.1-0.1c0,0-0.1-0.1-0.2-0.1h-0.4V155.6z
				 M174.2,155.4c0.2,0,0.3,0,0.4,0.1c0.1,0.1,0.2,0.2,0.2,0.4c0,0.1,0,0.2-0.1,0.3s-0.2,0.1-0.4,0.1l0.5,0.6h-0.4l-0.5-0.6h-0.1
				v0.6h-0.3v-1.5L174.2,155.4L174.2,155.4z M174.1,157.4c0.2,0,0.3,0,0.5-0.1s0.3-0.2,0.4-0.3c0.1-0.1,0.2-0.2,0.3-0.4
				s0.1-0.3,0.1-0.5s0-0.3-0.1-0.5s-0.2-0.3-0.3-0.4c-0.1-0.1-0.2-0.2-0.4-0.3c-0.1-0.1-0.3-0.1-0.5-0.1s-0.3,0-0.5,0.1
				s-0.3,0.2-0.4,0.3c-0.1,0.1-0.2,0.3-0.3,0.4c-0.1,0.2-0.1,0.3-0.1,0.5s0,0.3,0.1,0.5s0.2,0.3,0.3,0.4c0.1,0.1,0.3,0.2,0.4,0.3
				C173.8,157.4,173.9,157.4,174.1,157.4 M174.1,154.5c0.2,0,0.4,0,0.6,0.1c0.2,0.1,0.4,0.2,0.5,0.3s0.3,0.3,0.4,0.5
				c0.1,0.2,0.1,0.4,0.1,0.6c0,0.2,0,0.4-0.1,0.6s-0.2,0.4-0.4,0.5s-0.3,0.3-0.5,0.4c-0.2,0.1-0.4,0.1-0.6,0.1c-0.2,0-0.5,0-0.7-0.1
				s-0.4-0.2-0.5-0.4c-0.1-0.1-0.3-0.3-0.4-0.5c-0.1-0.2-0.1-0.4-0.1-0.6c0-0.2,0-0.4,0.1-0.6c0.1-0.2,0.2-0.4,0.4-0.5
				c0.1-0.1,0.3-0.3,0.5-0.3C173.6,154.5,173.9,154.5,174.1,154.5"/>
		</g>
	</g>
</g>
</svg>
