<?xml version="1.0" encoding="utf-8"?>
<!-- Generator: Adobe Illustrator 21.0.0, SVG Export Plug-In . SVG Version: 6.00 Build 0)  -->
<svg version="1.1"
	 id="svg3409" inkscape:version="0.91 r13725" sodipodi:docname="MasterCard 2016.svg" xmlns:cc="http://creativecommons.org/ns#" xmlns:dc="http://purl.org/dc/elements/1.1/" xmlns:inkscape="http://www.inkscape.org/namespaces/inkscape" xmlns:rdf="http://www.w3.org/1999/02/22-rdf-syntax-ns#" xmlns:sodipodi="http://sodipodi.sourceforge.net/DTD/sodipodi-0.dtd" xmlns:svg="http://www.w3.org/2000/svg"
	 xmlns="http://www.w3.org/2000/svg" xmlns:xlink="http://www.w3.org/1999/xlink" x="0px" y="0px" viewBox="0 0 1004.9 781.6"
	 style="enable-background:new 0 0 1004.9 781.6;" xml:space="preserve">
<style type="text/css">
	.st0{fill:#FFFFFF;}
	.st1{fill:#FF5A00;}
	.st2{fill:#EB001B;}
	.st3{fill:#F79E1B;}
</style>
<g id="Calque_2">
</g>
<rect class="st0" width="1004.9" height="781.6"/>
<path id="XMLID_1775_" inkscape:connector-curvature="0" d="M183.9,777.1v-51.5c0-19.7-12-32.6-32.6-32.6
	c-10.3,0-21.5,3.4-29.2,14.6c-6-9.4-14.6-14.6-27.5-14.6c-8.6,0-17.2,2.6-24,12v-10.3h-18v82.4h18v-45.5c0-14.6,7.7-21.5,19.7-21.5
	s18,7.7,18,21.5v45.5h18v-45.5c0-14.6,8.6-21.5,19.7-21.5c12,0,18,7.7,18,21.5v45.5L183.9,777.1L183.9,777.1z M450.9,694.7h-29.2
	v-24.9h-18v24.9h-16.3V711h16.3v37.8c0,18.9,7.7,30,28.3,30c7.7,0,16.3-2.6,22.3-6l-5.2-15.5c-5.2,3.4-11.2,4.3-15.5,4.3
	c-8.6,0-12-5.2-12-13.7V711h29.2v-16.3H450.9z M603.7,692.9c-10.3,0-17.2,5.2-21.5,12v-10.3h-18V777h18v-46.4
	c0-13.7,6-21.5,17.2-21.5c3.4,0,7.7,0.9,11.2,1.7l5.2-17.2C612.2,692.9,607.1,692.9,603.7,692.9L603.7,692.9z M372.8,701.5
	c-8.6-6-20.6-8.6-33.5-8.6c-20.6,0-34.3,10.3-34.3,26.6c0,13.7,10.3,21.5,28.3,24l8.6,0.9c9.4,1.7,14.6,4.3,14.6,8.6
	c0,6-6.9,10.3-18.9,10.3s-21.5-4.3-27.5-8.6l-8.6,13.7c9.4,6.9,22.3,10.3,35.2,10.3c24,0,37.8-11.2,37.8-26.6
	c0-14.6-11.2-22.3-28.3-24.9l-8.6-0.9c-7.7-0.9-13.7-2.6-13.7-7.7c0-6,6-9.4,15.5-9.4c10.3,0,20.6,4.3,25.8,6.9L372.8,701.5
	L372.8,701.5z M851.7,692.9c-10.3,0-17.2,5.2-21.5,12v-10.3h-18V777h18v-46.4c0-13.7,6-21.5,17.2-21.5c3.4,0,7.7,0.9,11.2,1.7
	l5.2-17C860.3,692.9,855.2,692.9,851.7,692.9L851.7,692.9z M621.7,735.9c0,24.9,17.2,42.9,43.8,42.9c12,0,20.6-2.6,29.2-9.4
	l-8.6-14.6c-6.9,5.2-13.7,7.7-21.5,7.7c-14.6,0-24.9-10.3-24.9-26.6c0-15.5,10.3-25.8,24.9-26.6c7.7,0,14.6,2.6,21.5,7.7l8.6-14.6
	c-8.6-6.9-17.2-9.4-29.2-9.4C638.9,692.9,621.7,711,621.7,735.9L621.7,735.9L621.7,735.9z M788.2,735.9v-41.2h-18V705
	c-6-7.7-14.6-12-25.8-12c-23.2,0-41.2,18-41.2,42.9s18,42.9,41.2,42.9c12,0,20.6-4.3,25.8-12v10.3h18V735.9L788.2,735.9z
	 M722.1,735.9c0-14.6,9.4-26.6,24.9-26.6c14.6,0,24.9,11.2,24.9,26.6c0,14.6-10.3,26.6-24.9,26.6
	C731.6,761.6,722.1,750.4,722.1,735.9L722.1,735.9z M506.7,692.9c-24,0-41.2,17.2-41.2,42.9c0,25.8,17.2,42.9,42.1,42.9
	c12,0,24-3.4,33.5-11.2l-8.6-12.9c-6.9,5.2-15.5,8.6-24,8.6c-11.2,0-22.3-5.2-24.9-19.7h60.9c0-2.6,0-4.3,0-6.9
	C545.3,710.1,529.8,692.9,506.7,692.9L506.7,692.9L506.7,692.9z M506.7,708.4c11.2,0,18.9,6.9,20.6,19.7h-42.9
	C486.1,717,493.8,708.4,506.7,708.4L506.7,708.4z M953.9,735.9v-73.8h-18V705c-6-7.7-14.6-12-25.8-12c-23.2,0-41.2,18-41.2,42.9
	s18,42.9,41.2,42.9c12,0,20.6-4.3,25.8-12v10.3h18V735.9L953.9,735.9z M887.8,735.9c0-14.6,9.4-26.6,24.9-26.6
	c14.6,0,24.9,11.2,24.9,26.6c0,14.6-10.3,26.6-24.9,26.6C897.2,761.6,887.8,750.4,887.8,735.9L887.8,735.9z M285.2,735.9v-41.2h-18
	V705c-6-7.7-14.6-12-25.8-12c-23.2,0-41.2,18-41.2,42.9s18,42.9,41.2,42.9c12,0,20.6-4.3,25.8-12v10.3h18V735.9L285.2,735.9z
	 M218.3,735.9c0-14.6,9.4-26.6,24.9-26.6c14.6,0,24.9,11.2,24.9,26.6c0,14.6-10.3,26.6-24.9,26.6
	C227.7,761.6,218.3,750.4,218.3,735.9z"/>
<g>
	<rect id="rect19" x="366.8" y="68.9" class="st1" width="270.4" height="485.8"/>
	<path id="XMLID_330_" inkscape:connector-curvature="0" class="st2" d="M384.8,311.8c0-98.7,46.4-186.3,117.6-242.9
		C450,27.7,383.9,2.8,311.8,2.8C141,2.8,2.8,141,2.8,311.8s138.2,309,309,309c72.1,0,138.2-24.9,190.6-66.1
		C431.1,498.9,384.8,410.5,384.8,311.8z"/>
	<path id="path22" inkscape:connector-curvature="0" class="st3" d="M1002,311.8c0,170.8-138.2,309-309,309
		c-72.1,0-138.2-24.9-190.6-66.1C574.5,498,620,410.5,620,311.8S573.6,125.5,502.4,68.9C554.7,27.7,620.8,2.8,692.9,2.8
		C863.8,2.8,1002,141.9,1002,311.8z"/>
</g>
</svg>
