<?xml version="1.0" encoding="utf-8"?>
<!-- Generator: Adobe Illustrator 21.0.0, SVG Export Plug-In . SVG Version: 6.00 Build 0)  -->
<svg version="1.1" xmlns="http://www.w3.org/2000/svg" xmlns:xlink="http://www.w3.org/1999/xlink" x="0px" y="0px"
	 viewBox="0 0 129.7 34.5" style="enable-background:new 0 0 129.7 34.5;" xml:space="preserve">
<style type="text/css">
	.st0{fill:#FFFFFF;}
	.st1{fill:#253B80;}
	.st2{fill:#179BD7;}
	.st3{fill:#222D65;}
</style>
<g id="Calque_2">
	<rect class="st0" width="129.7" height="34.5"/>
</g>
<g id="Layer_1">
	<path class="st1" d="M49,7.5h-6.8c-0.5,0-0.9,0.3-0.9,0.8l-2.8,17.5c-0.1,0.3,0.2,0.7,0.6,0.7h3.3c0.5,0,0.9-0.3,0.9-0.8L44,21
		c0.1-0.5,0.5-0.8,0.9-0.8h2.2c4.5,0,7.1-2.2,7.8-6.5c0.3-1.9,0-3.4-0.9-4.4C53.1,8.1,51.3,7.5,49,7.5z M49.8,13.9
		c-0.4,2.5-2.2,2.5-4.1,2.5h-1l0.7-4.6c0-0.3,0.3-0.5,0.6-0.5h0.5c1.2,0,2.4,0,3,0.7C49.9,12.4,50,13,49.8,13.9z"/>
	<path class="st1" d="M69.5,13.8h-3.3c-0.3,0-0.5,0.2-0.6,0.5l-0.1,0.9l-0.2-0.3c-0.7-1-2.3-1.4-3.9-1.4c-3.6,0-6.7,2.7-7.3,6.6
		c-0.3,1.9,0.1,3.8,1.2,5c1,1.2,2.4,1.7,4.1,1.7c2.9,0,4.5-1.9,4.5-1.9l-0.1,0.9c-0.1,0.3,0.2,0.7,0.6,0.7h2.9
		c0.5,0,0.9-0.3,0.9-0.8L70,14.5C70.1,14.1,69.8,13.8,69.5,13.8z M64.9,20.2c-0.3,1.9-1.8,3.1-3.7,3.1c-1,0-1.7-0.3-2.2-0.9
		c-0.5-0.6-0.7-1.4-0.5-2.3c0.3-1.9,1.8-3.2,3.7-3.2c0.9,0,1.7,0.3,2.2,0.9C64.9,18.5,65.1,19.3,64.9,20.2z"/>
	<path class="st1" d="M86.9,13.8h-3.3c-0.3,0-0.6,0.2-0.8,0.4l-4.5,6.7l-1.9-6.4c-0.1-0.4-0.5-0.7-0.9-0.7h-3.2
		c-0.4,0-0.7,0.4-0.5,0.8l3.6,10.6L71.9,30c-0.3,0.4,0,0.9,0.5,0.9h3.3c0.3,0,0.6-0.2,0.8-0.4l10.9-15.8
		C87.7,14.3,87.4,13.8,86.9,13.8z"/>
	<path class="st2" d="M97.8,7.5H91c-0.5,0-0.9,0.3-0.9,0.8l-2.8,17.5c-0.1,0.3,0.2,0.7,0.6,0.7h3.5c0.3,0,0.6-0.2,0.7-0.6l0.8-5
		c0.1-0.5,0.5-0.8,0.9-0.8h2.2c4.5,0,7.1-2.2,7.8-6.5c0.3-1.9,0-3.4-0.9-4.4C101.8,8.1,100.1,7.5,97.8,7.5z M98.6,13.9
		c-0.4,2.5-2.2,2.5-4.1,2.5h-1l0.7-4.6c0-0.3,0.3-0.5,0.6-0.5h0.5c1.2,0,2.4,0,3,0.7C98.6,12.4,98.7,13,98.6,13.9z"/>
	<path class="st2" d="M118.3,13.8H115c-0.3,0-0.5,0.2-0.6,0.5l-0.1,0.9l-0.2-0.3c-0.7-1-2.3-1.4-3.9-1.4c-3.6,0-6.7,2.7-7.3,6.6
		c-0.3,1.9,0.1,3.8,1.2,5c1,1.2,2.4,1.7,4.1,1.7c2.9,0,4.5-1.9,4.5-1.9l-0.1,0.9c-0.1,0.3,0.2,0.7,0.6,0.7h2.9
		c0.5,0,0.9-0.3,0.9-0.8l1.8-11.2C118.9,14.1,118.6,13.8,118.3,13.8z M113.7,20.2c-0.3,1.9-1.8,3.1-3.7,3.1c-0.9,0-1.7-0.3-2.2-0.9
		c-0.5-0.6-0.7-1.4-0.5-2.3c0.3-1.9,1.8-3.2,3.7-3.2c0.9,0,1.7,0.3,2.2,0.9C113.6,18.5,113.8,19.3,113.7,20.2z"/>
	<path class="st2" d="M122.1,8l-2.8,17.9c-0.1,0.3,0.2,0.7,0.6,0.7h2.8c0.5,0,0.9-0.3,0.9-0.8l2.8-17.5c0.1-0.3-0.2-0.7-0.6-0.7
		h-3.2C122.4,7.5,122.2,7.7,122.1,8z"/>
	<path class="st1" d="M10.1,29.9l0.5-3.3l-1.2,0H3.9L7.8,2c0-0.1,0.1-0.1,0.1-0.2c0.1,0,0.1-0.1,0.2-0.1h9.4c3.1,0,5.3,0.6,6.4,1.9
		c0.5,0.6,0.9,1.2,1,1.9c0.2,0.7,0.2,1.6,0,2.6l0,0.1V9l0.5,0.3c0.4,0.2,0.8,0.5,1.1,0.8c0.5,0.5,0.7,1.2,0.9,1.9
		c0.1,0.8,0.1,1.7-0.1,2.8c-0.2,1.2-0.6,2.3-1.2,3.2c-0.5,0.8-1.1,1.5-1.8,2c-0.7,0.5-1.5,0.9-2.5,1.1c-0.9,0.2-1.9,0.4-3.1,0.4
		h-0.7c-0.5,0-1,0.2-1.4,0.5c-0.4,0.3-0.7,0.8-0.7,1.3l-0.1,0.3l-0.9,5.9l0,0.2c0,0.1,0,0.1-0.1,0.1c0,0-0.1,0-0.1,0
		C14.6,29.9,10.1,29.9,10.1,29.9z"/>
	<path class="st2" d="M25.9,8.4L25.9,8.4L25.9,8.4c0,0.2-0.1,0.4-0.1,0.6c-1.2,6.4-5.5,8.5-10.9,8.5h-2.8c-0.7,0-1.2,0.5-1.3,1.1
		l0,0l0,0l-1.4,8.9L9,30.1c-0.1,0.4,0.3,0.8,0.7,0.8h4.9c0.6,0,1.1-0.4,1.2-1l0-0.2l0.9-5.8l0.1-0.3c0.1-0.6,0.6-1,1.2-1h0.7
		c4.7,0,8.4-1.9,9.5-7.5c0.5-2.3,0.2-4.3-1-5.6C26.9,9,26.4,8.7,25.9,8.4z"/>
	<path class="st3" d="M24.6,7.9c-0.2-0.1-0.4-0.1-0.6-0.2c-0.2,0-0.4-0.1-0.6-0.1c-0.7-0.1-1.6-0.2-2.4-0.2h-7.4
		c-0.2,0-0.4,0-0.5,0.1c-0.3,0.2-0.6,0.5-0.7,0.9l-1.6,9.9l0,0.3c0.1-0.7,0.7-1.1,1.3-1.1h2.8c5.4,0,9.6-2.2,10.9-8.5
		c0-0.2,0.1-0.4,0.1-0.6c-0.3-0.2-0.7-0.3-1-0.4C24.8,8,24.7,7.9,24.6,7.9z"/>
	<path class="st1" d="M12.4,8.5c0.1-0.4,0.3-0.7,0.7-0.9c0.2-0.1,0.3-0.1,0.5-0.1H21c0.9,0,1.7,0.1,2.4,0.2c0.2,0,0.4,0.1,0.6,0.1
		c0.2,0,0.4,0.1,0.6,0.2c0.1,0,0.2,0.1,0.3,0.1c0.4,0.1,0.7,0.3,1,0.4c0.4-2.3,0-3.9-1.3-5.4c-1.4-1.6-3.9-2.3-7.2-2.3H8.1
		c-0.7,0-1.2,0.5-1.3,1.1L2.8,26.7c-0.1,0.5,0.3,0.9,0.8,0.9h5.8l1.5-9.2L12.4,8.5z"/>
</g>
</svg>
