<?xml version="1.0" encoding="utf-8"?>
<!-- Generator: Adobe Illustrator 21.0.0, SVG Export Plug-In . SVG Version: 6.00 Build 0)  -->
<svg version="1.1"
	 id="Layer_1" inkscape:version="1.0.2 (e86c870879, 2021-01-15)" sodipodi:docname="Visa_2021.svg" xmlns:cc="http://creativecommons.org/ns#" xmlns:dc="http://purl.org/dc/elements/1.1/" xmlns:inkscape="http://www.inkscape.org/namespaces/inkscape" xmlns:rdf="http://www.w3.org/1999/02/22-rdf-syntax-ns#" xmlns:sodipodi="http://sodipodi.sourceforge.net/DTD/sodipodi-0.dtd" xmlns:svg="http://www.w3.org/2000/svg"
	 xmlns="http://www.w3.org/2000/svg" xmlns:xlink="http://www.w3.org/1999/xlink" x="0px" y="0px" viewBox="0 0 1005.7 326.5"
	 style="enable-background:new 0 0 1005.7 326.5;" xml:space="preserve">
<style type="text/css">
	.st0{fill:#FFFFFF;}
	.st1{fill:#1434CB;}
</style>
<rect class="st0" width="1005.7" height="326.5"/>
<path id="path3789" inkscape:connector-curvature="0" class="st1" d="M654,1.4c-70.9,0-134.3,36.8-134.3,104.7
	c0,77.9,112.4,83.3,112.4,122.4c0,16.5-18.9,31.2-51.1,31.2c-45.8,0-80-20.6-80-20.6l-14.6,68.5c0,0,39.4,17.4,91.7,17.4
	c77.6,0,138.6-38.6,138.6-107.7c0-82.3-112.9-87.5-112.9-123.9c0-12.9,15.5-27.1,47.7-27.1c36.3,0,65.9,15,65.9,15l14.3-66.2
	C731.7,15.3,699.5,1.4,654,1.4L654,1.4z M5.1,6.4l-1.7,10c0,0,29.8,5.5,56.7,16.4C94.7,45.3,97.1,52.5,103,75.1L166.5,320h85.1
	L382.8,6.4h-84.9l-84.3,213.2L179.2,38.9C176,18.2,160,6.4,140.5,6.4C140.5,6.4,5.1,6.4,5.1,6.4z M416.9,6.4L350.3,320h81L497.7,6.4
	L416.9,6.4L416.9,6.4z M868.7,6.4c-19.5,0-29.9,10.5-37.5,28.7L712.5,320h84.9l16.4-47.5h103.5l10,47.5h74.9L937,6.4L868.7,6.4
	L868.7,6.4z M879.7,91.1l25.2,117.7h-67.5L879.7,91.1L879.7,91.1z"/>
</svg>
