<svg xmlns="http://www.w3.org/2000/svg" viewBox="0 0 345.24 310.68"><defs><style>.cls-1{fill:#ffface;}.cls-1,.cls-2,.cls-3,.cls-4,.cls-5{fill-rule:evenodd;}.cls-2{fill:#ffed00;}.cls-3{fill:#f8b26f;}.cls-4{fill:#ef7d00;}.cls-5,.cls-7{fill:#fff;}.cls-6{fill:#1d1d1b;}</style></defs><title>DiVintage_LogoFichier 2</title><g id="Calque_2" data-name="Calque 2"><g id="Carré"><path class="cls-1" d="M172.66,310.68c95,0,172.58-59.33,172.58-132s-77.54-132-172.58-132S0,105.91,0,178.63,77.62,310.68,172.66,310.68Z"/><path class="cls-2" d="M170.93,279.5c76.9,0,139.68-62.78,139.68-139.75S247.82,0,170.93,0,31.18,62.78,31.18,139.75,94,279.5,170.93,279.5Z"/><path class="cls-3" d="M148.25,250.27c56.45,0,102.53-46.08,102.53-102.53S204.7,45.14,148.25,45.14a102.79,102.79,0,0,0-102.6,102.6C45.65,204.19,91.73,250.27,148.25,250.27Z"/><path class="cls-4" d="M196.13,279.22c59,0,107.14-48.17,107.14-107.21S255.1,64.73,196.13,64.73,88.85,113,88.85,172,137,279.22,196.13,279.22Z"/><path class="cls-5" d="M167.4,213.12a69.8,69.8,0,1,0-69.84-69.77A69.81,69.81,0,0,0,167.4,213.12Z"/><g id="D"><path class="cls-6" d="M48.92,134.84c-3.47-1.13-7.49-.85-12,.85l-21.28,7.83v77.92l20.46-7.57a29,29,0,0,0,12.58-8.64,19.06,19.06,0,0,0,4.95-12.85V143.57C53.66,138.74,52.11,135.88,48.92,134.84ZM38.35,200.3c0,2.32-1,5.46-5.72,7.24l-1.72.66V145.56l.82-.31c2.21-.83,3.87-.83,5.07,0a4.16,4.16,0,0,1,1.55,3.65Z"/><path class="cls-7" d="M49.71,132.42c-4-1.32-8.63-1-13.65.88l-22.94,8.44V225.1L37,216.26a31.8,31.8,0,0,0,13.65-9.37,21.77,21.77,0,0,0,5.56-14.51V143.57C56.21,137.58,54,133.83,49.71,132.42Zm3.95,60a19.06,19.06,0,0,1-4.95,12.85,29,29,0,0,1-12.58,8.64l-20.46,7.57V143.52L37,135.69c4.48-1.7,8.5-2,12-.85,3.19,1,4.74,3.9,4.74,8.73Z"/><path class="cls-7" d="M36.8,145.24c-1.2-.82-2.86-.82-5.07,0l-.82.31V208.2l1.72-.66c4.73-1.78,5.72-4.92,5.72-7.24V148.89A4.16,4.16,0,0,0,36.8,145.24Zm-3.34,59.08V147.37c1.26-.35,1.75-.12,1.89,0,.39.28.45,1.09.45,1.55V200.3A4.54,4.54,0,0,1,33.46,204.32Z"/></g><g id="i"><polygon class="cls-6" points="72.95 137.69 72.95 200.28 59.45 205.24 59.45 142.66 72.95 137.69"/><polygon class="cls-6" points="72.95 122.35 72.95 131.37 59.45 136.34 59.45 127.32 72.95 122.35"/><path class="cls-7" d="M56.9,140.88v68l18.61-6.84V134ZM73,200.28l-13.5,5V142.66l13.5-5Z"/><path class="cls-7" d="M56.9,125.54V140l18.61-6.84V118.7ZM73,131.37l-13.5,5v-9l13.5-5Z"/></g><g id="V"><polygon class="cls-6" points="121.44 104.38 110.93 186.2 88.09 194.67 77.58 120.58 92.37 115.15 99.63 179.26 106.88 109.78 121.44 104.38"/><path class="cls-7" d="M104.51,107.94l-5,47.74-5-44-19.77,7.25L86,198.16l27.26-10.11,11.24-87.53ZM88.09,194.67,77.58,120.58l14.79-5.43,7.26,64.11,7.25-69.48,14.56-5.4L110.93,186.2Z"/></g><g id="i-2" data-name="i"><polygon class="cls-6" points="139.7 97.59 139.7 106.68 126.19 111.64 126.19 102.62 139.7 97.59"/><polygon class="cls-6" points="139.7 112.99 139.7 175.58 126.19 180.55 126.19 117.96 139.7 112.99"/><path class="cls-7" d="M123.64,116.18v68l18.61-6.84v-68Zm16.06,59.4-13.51,5V118l13.51-5Z"/><path class="cls-7" d="M123.64,100.85V115.3l18.61-6.84V93.92Zm16.06,5.83-13.51,5v-9l13.51-5Z"/></g><g id="n"><path class="cls-6" d="M180.59,104.83v55.56l-13.5,5V114.84a3.07,3.07,0,0,0-4.56-3.2,5.21,5.21,0,0,0-3.54,5.14v51.6l-13.43,5V110.83l13.43-5v3.92l2.26-2.71c2-2.4,5.08-4.35,9.4-5.95a11,11,0,0,1,7.21-.54C179.7,101,180.59,102.43,180.59,104.83Z"/><path class="cls-7" d="M178.56,98.06a13.76,13.76,0,0,0-8.8.61,27.78,27.78,0,0,0-8.21,4.48v-1L143,109.06v68l18.54-6.93V116.78a2.67,2.67,0,0,1,1.87-2.75,2.62,2.62,0,0,1,.81-.17h.14a1.71,1.71,0,0,1,.17,1v54.25l18.61-6.93V104.83C183.15,101.27,181.51,98.87,178.56,98.06Zm2,62.33-13.5,5V114.84a3.07,3.07,0,0,0-4.56-3.2,5.21,5.21,0,0,0-3.54,5.14v51.6l-13.43,5V110.83l13.43-5v3.92l2.26-2.71c2-2.4,5.08-4.35,9.4-5.95a11,11,0,0,1,7.21-.54c1.84.5,2.73,1.91,2.73,4.31Z"/></g><g id="t"><path class="cls-6" d="M215.8,139v8.39l-9.32,3.43c-9.59,3.55-11.29,2.27-11.55,2-.69-.8-1.85-3.27-1.85-10.9V100.2L186,102.79V95.85l7.13-2.66V80l13.51-5V88.24L215.23,85v7l-8.64,3.17v40.63c0,3.24,1.46,4.19,2.62,4.41S212.4,140.14,215.8,139Z"/><path class="cls-7" d="M216.64,136c-4.86,1.8-6.35,1.88-6.89,1.74s-.61-1.09-.61-1.91V96.94l8.64-3.17V81.32l-8.64,3.24V71.39l-18.61,6.85V91.42l-7.13,2.66v12.35l7.13-2.59v38c0,6.54.81,10.66,2.45,12.55a4.66,4.66,0,0,0,3.8,1.39c2.44,0,5.9-.86,10.59-2.59l11-4.05V135.33Zm-.84,11.4-9.32,3.43c-9.59,3.55-11.29,2.27-11.55,2-.69-.8-1.85-3.27-1.85-10.9V100.2L186,102.79V95.85l7.13-2.66V80l13.51-5V88.24L215.23,85v7l-8.64,3.17v40.63c0,3.24,1.46,4.19,2.62,4.41s3.19-.06,6.59-1.23Z"/></g><g id="a"><path class="cls-6" d="M253.94,74.2c-2.52-1.75-7.07-1.41-13.52,1C228.14,79.72,222.17,86,222.17,94.32v11.19l12.84-4.8c0-.83-.1-1.89-.2-3-.14-1.86-.22-3.23-.22-4.21,0-5.84,1.31-9.17,4-10.19a5.12,5.12,0,0,1,1.62-.31,2.61,2.61,0,0,1,1.57.48c.86.61,1.27,1.67,1.27,3.26v9.64c0,.64,0,2.34-6,7.52-6.17,5.48-10.4,9.75-12.54,12.68a14.07,14.07,0,0,0-2.93,8.1v13.1c0,2.4.61,4,1.79,4.87,1.74,1.22,5.06,1,9.61-.66,5.23-2,8.44-4.24,9.49-6.6l2.44-5.45v6.66l11.63-4.31V81.14C256.55,77.73,255.68,75.4,253.94,74.2Zm-10.89,52.66a5.08,5.08,0,0,1-3.42,5.16,5.22,5.22,0,0,1-1.78.36,2.77,2.77,0,0,1-1.58-.46,3.48,3.48,0,0,1-1.24-3V117.07c0-2.91,2-5.57,6.07-8.14l2-1.22Z"/><path class="cls-7" d="M255.4,72.1c-3.31-2.29-8.5-2-15.87.72-13.21,4.85-19.91,12.08-19.91,21.5v14.87l13.17-4.92A83.48,83.48,0,0,0,222.44,115a16.67,16.67,0,0,0-3.4,9.59v13.1c0,3.28,1,5.62,2.88,7a7.65,7.65,0,0,0,4.48,1.24,22.58,22.58,0,0,0,7.48-1.61,27.44,27.44,0,0,0,8.49-4.73v.62l16.74-6.2V81.14C259.11,76.85,257.86,73.8,255.4,72.1Zm1.15,60.14-11.63,4.31v-6.66l-2.44,5.45c-1,2.36-4.26,4.58-9.49,6.6-4.55,1.65-7.87,1.88-9.61.66-1.18-.83-1.79-2.47-1.79-4.87v-13.1a14.07,14.07,0,0,1,2.93-8.1c2.14-2.93,6.37-7.2,12.54-12.68,6-5.18,6-6.88,6-7.52V86.69c0-1.59-.41-2.65-1.27-3.26a2.61,2.61,0,0,0-1.57-.48,5.12,5.12,0,0,0-1.62.31c-2.69,1-4,4.35-4,10.19,0,1,.08,2.35.22,4.21.1,1.16.17,2.22.2,3l-12.84,4.8V94.32c0-8.35,6-14.6,18.25-19.11,6.45-2.42,11-2.76,13.52-1,1.74,1.2,2.61,3.53,2.61,6.94Zm-19.4-38.79c0-4.46.83-7.23,2.3-7.79a2.43,2.43,0,0,1,.76-.16h.09a2.18,2.18,0,0,1,.2,1.19v9.62s-.16,1-3,3.67c0-.75-.1-1.61-.17-2.52C237.22,95.69,237.15,94.35,237.15,93.45Z"/><path class="cls-7" d="M241.1,108.93c-4.09,2.57-6.07,5.23-6.07,8.14v11.81a3.48,3.48,0,0,0,1.24,3,2.77,2.77,0,0,0,1.58.46,5.22,5.22,0,0,0,1.78-.36,5.08,5.08,0,0,0,3.42-5.16V107.71Zm-.6,17.93a2.57,2.57,0,0,1-1.76,2.77,2.09,2.09,0,0,1-1,.2,1.79,1.79,0,0,1-.16-.95V117.07c0-1.52,1-3,2.92-4.61Z"/></g><g id="g"><path class="cls-6" d="M286.1,58.72l-2.3,3.49-.8-.11c-3.63-.5-6.32-.38-8.22.36-8,3-11.93,7.64-11.93,14.22v46.94c0,2.16.82,3.44,2.59,4,2,.71,4.44.54,7.29-.49,4.25-1.56,7.42-3.5,9.41-5.77l2.24-2.54v3.38c0,4.42-2.25,7.62-6.51,9.26L265.66,136v6.78l14.91-5.55c8.35-3.11,13.35-6.24,14.85-9.3A24.54,24.54,0,0,0,297.81,117V54.39Zm-1.72,53.45a5.52,5.52,0,0,1-5.33,5.41,2.72,2.72,0,0,1-1.61-.49,3.4,3.4,0,0,1-1.23-3V73.22A5.19,5.19,0,0,1,279.88,68a3.41,3.41,0,0,1,3.24.1,3.47,3.47,0,0,1,1.26,3.05Z"/><path class="cls-7" d="M284.43,56.62l-1.88,2.85c-3.72-.44-6.49-.24-8.68.6-9,3.36-13.57,9-13.57,16.61v46.94c0,3.21,1.53,5.51,4.32,6.46,2.62.91,5.56.74,9-.51a30.75,30.75,0,0,0,7.44-3.78,7.25,7.25,0,0,1-4.06,3.33l-13.87,5.06v12.23l18.35-6.83c9.11-3.39,14.43-6.85,16.25-10.57a27.09,27.09,0,0,0,2.65-12V50.73ZM297.81,117a24.54,24.54,0,0,1-2.39,10.89c-1.5,3.06-6.5,6.19-14.85,9.3l-14.91,5.55V136l12.21-4.45c4.26-1.64,6.51-4.84,6.51-9.26v-3.38l-2.24,2.54c-2,2.27-5.16,4.21-9.41,5.77-2.85,1-5.24,1.2-7.29.49-1.77-.61-2.59-1.89-2.59-4V76.68c0-6.58,3.9-11.23,11.93-14.22,1.9-.74,4.59-.86,8.22-.36l.8.11,2.3-3.49,11.71-4.33Z"/><path class="cls-7" d="M283.12,68.08a3.41,3.41,0,0,0-3.24-.1,5.19,5.19,0,0,0-3.67,5.24v40.9a3.4,3.4,0,0,0,1.23,3,2.72,2.72,0,0,0,1.61.49,5.52,5.52,0,0,0,5.33-5.41v-41A3.47,3.47,0,0,0,283.12,68.08Zm-1.29,44.09a2.65,2.65,0,0,1-2,2.69,1.82,1.82,0,0,1-1,.16s-.16-.2-.16-.9V73.22a2.66,2.66,0,0,1,2-2.84,2.29,2.29,0,0,1,.86-.2h0a1.64,1.64,0,0,1,.17,1Z"/></g><g id="e"><path class="cls-6" d="M338.85,74.13v-24c0-3.07-.79-5.11-2.41-6.24A7.58,7.58,0,0,0,332,42.73,31.7,31.7,0,0,0,321.7,45c-12,4.44-17.81,10.83-17.81,19.54v39.1c0,3.3.86,5.58,2.56,6.76,2.61,1.82,7.45,1.44,14.37-1.12,12-4.37,18-10.75,18-19V78.88l-13.43,5V96.12a5.49,5.49,0,0,1-3.54,5.57,3.43,3.43,0,0,1-3.26-.17,3.77,3.77,0,0,1-1.3-3.31V82.05ZM317.32,58.25A5.35,5.35,0,0,1,321,52.79a3.25,3.25,0,0,1,3.11.1,3.7,3.7,0,0,1,1.32,3.27V72L317.32,75Z"/><path class="cls-7" d="M337.9,41.78c-3.4-2.38-9-2.09-17.08.87-12.93,4.78-19.48,12.16-19.48,21.93v39.1c0,4.19,1.23,7.17,3.65,8.85a10,10,0,0,0,5.84,1.59,32.58,32.58,0,0,0,10.87-2.4c13.07-4.78,19.7-12,19.7-21.36V50.11C341.4,46.2,340.22,43.4,337.9,41.78Zm-18,42,3-1.1V96.12c0,1.68-.6,2.67-1.88,3.18-.67.23-.89.15-.89.15s-.23-.24-.23-1.24Zm19-9.7-21.53,7.92V98.21a3.77,3.77,0,0,0,1.3,3.31,3.43,3.43,0,0,0,3.26.17,5.49,5.49,0,0,0,3.54-5.57V83.9l13.43-5V90.36c0,8.21-6.06,14.59-18,19-6.92,2.56-11.76,2.94-14.37,1.12-1.7-1.18-2.56-3.46-2.56-6.76V64.58c0-8.71,5.83-15.1,17.81-19.54A31.7,31.7,0,0,1,332,42.73a7.58,7.58,0,0,1,4.42,1.14c1.62,1.13,2.41,3.17,2.41,6.24Z"/><path class="cls-7" d="M324.1,52.89a3.25,3.25,0,0,0-3.11-.1,5.35,5.35,0,0,0-3.67,5.46V75l8.1-2.94V56.16A3.7,3.7,0,0,0,324.1,52.89Zm-4.23,5.36a2.82,2.82,0,0,1,2-3.07,2.12,2.12,0,0,1,.73-.18h0s.21.27.21,1.16V70.24l-3,1.09Z"/></g></g></g></svg>